<svg width="19" height="19" viewBox="0 0 19 19" fill="none" xmlns="http://www.w3.org/2000/svg">
<path fill-rule="evenodd" clip-rule="evenodd" d="M17.9706 1.7071C18.3611 1.31658 18.3612 0.683416 17.9706 0.292891C17.5801 -0.0976336 16.9469 -0.0976333 16.5564 0.292891L9.13194 7.71736L1.70737 0.292784C1.31684 -0.0977406 0.683678 -0.0977401 0.293154 0.292784C-0.0973709 0.683309 -0.0973706 1.31647 0.293154 1.707L7.71773 9.13157L0.292585 16.5567C-0.0979388 16.9472 -0.0979395 17.5804 0.292585 17.9709C0.68311 18.3615 1.31627 18.3615 1.7068 17.9709L9.13194 10.5458L16.557 17.9708C16.9475 18.3613 17.5807 18.3613 17.9712 17.9708C18.3617 17.5803 18.3617 16.9471 17.9712 16.5566L10.5462 9.13157L17.9706 1.7071Z" fill="#ABABAB"/>
</svg>
