<svg width="30" height="30" viewBox="0 0 30 30" fill="none" xmlns="http://www.w3.org/2000/svg">
<path d="M7.60482 24.8092C8.04747 25.1455 8.61001 25.0262 9.27997 24.5382L14.9966 20.3318L20.7243 24.5382C21.3943 25.0262 21.9453 25.1455 22.3995 24.8092C22.8421 24.473 22.9399 23.9202 22.6697 23.1288L20.4108 16.3857L26.1818 12.2228C26.8518 11.7459 27.122 11.2468 26.9491 10.7052C26.7762 10.1848 26.268 9.9244 25.4362 9.9355L18.3575 9.97851L16.207 3.20309C15.9478 2.40103 15.5591 2 14.9966 2C14.4456 2 14.0564 2.40103 13.7968 3.20309L11.6463 9.97851L4.56806 9.9355C3.73579 9.9244 3.22813 10.1848 3.05522 10.7052C2.87124 11.2473 3.15204 11.7459 3.82247 12.2228L9.59306 16.3857L7.33462 23.1288C7.06442 23.9202 7.16171 24.473 7.60482 24.8092ZM9.16101 22.663C9.13934 22.6413 9.14995 22.6302 9.16101 22.5649L11.3116 16.364C11.4522 15.9412 11.3761 15.6054 10.998 15.345L5.61613 11.6159C5.56218 11.5836 5.55157 11.5614 5.56218 11.529C5.57278 11.4966 5.59446 11.4966 5.65947 11.4966L12.1978 11.6159C12.6404 11.6266 12.9217 11.4425 13.0623 10.998L14.9321 4.72118C14.9533 4.65596 14.9749 4.63422 14.9966 4.63422C15.0289 4.63422 15.0506 4.65596 15.0612 4.72072L16.942 10.9975C17.0715 11.4425 17.3634 11.6266 17.8065 11.6159L24.3448 11.4966C24.4094 11.4966 24.431 11.4966 24.4416 11.529C24.4527 11.5614 24.431 11.5831 24.3877 11.6159L19.0058 15.345C18.6277 15.6054 18.5415 15.9417 18.6923 16.364L20.8433 22.5649C20.8539 22.6302 20.8649 22.6408 20.8433 22.6625C20.8216 22.6949 20.7893 22.6736 20.746 22.6408L15.5476 18.6624C15.2018 18.3914 14.802 18.3914 14.4562 18.6624L9.2583 22.6413C9.21496 22.6736 9.18268 22.6958 9.16101 22.663Z" fill="#111111"/>
</svg>
