<svg width="18" height="20" viewBox="0 0 18 20" fill="none" xmlns="http://www.w3.org/2000/svg">
<path d="M17 0H1C0.45 0 0 0.45 0 1V3C0 3.22 0.0700001 3.43 0.2 3.6L6 11.33V19C6 19.2652 6.10536 19.5196 6.29289 19.7071C6.48043 19.8946 6.73478 20 7 20C7.15 20 7.31 19.96 7.45 19.89L11.45 17.89C11.6149 17.8069 11.7536 17.6798 11.8507 17.5227C11.9478 17.3656 11.9994 17.1847 12 17V11.33L17.8 3.6C17.93 3.43 18 3.22 18 3V1C18 0.45 17.55 0 17 0ZM16 2.67L10.2 10.4C10.07 10.57 10 10.78 10 11V16.38L8 17.38V11C8 10.78 7.93 10.57 7.8 10.4L2 2.67V2H16V2.67Z" fill="#111111"/>
</svg>
