<svg width="34" height="33" viewBox="0 0 34 33" fill="none" xmlns="http://www.w3.org/2000/svg">
<path d="M16.4697 0.845215C16.6196 0.385017 17.2711 0.384878 17.4209 0.845215L20.7354 11.0474C20.9362 11.6653 21.5123 12.0835 22.1621 12.0835H32.8887C33.3727 12.0837 33.5739 12.703 33.1826 12.9878L24.5039 19.2935C23.9785 19.6755 23.7583 20.3524 23.959 20.9702L27.2744 31.1714C27.4241 31.632 26.8967 32.0154 26.5049 31.731L17.8262 25.4263C17.3005 25.0444 16.5892 25.0443 16.0635 25.4263L7.38574 31.731C6.99389 32.0157 6.46653 31.632 6.61621 31.1714L9.93066 20.9702C10.1314 20.3523 9.91131 19.6755 9.38574 19.2935L0.708008 12.9878C0.316151 12.7031 0.517591 12.0835 1.00195 12.0835H11.7285C12.3781 12.0833 12.9534 11.6651 13.1543 11.0474L16.4697 0.845215Z" stroke="#111111"/>
</svg>
