<svg width="34" height="33" viewBox="0 0 34 33" fill="none" xmlns="http://www.w3.org/2000/svg">
<path d="M15.9939 0.691051C16.2933 -0.23026 17.5967 -0.23026 17.896 0.691051L21.2107 10.8927C21.3446 11.3047 21.7286 11.5837 22.1618 11.5837H32.8884C33.8571 11.5837 34.2599 12.8233 33.4762 13.3927L24.7982 19.6976C24.4477 19.9523 24.301 20.4036 24.4349 20.8157L27.7496 31.0173C28.049 31.9386 26.9945 32.7047 26.2108 32.1353L17.5327 25.8304C17.1823 25.5757 16.7077 25.5757 16.3572 25.8304L7.67915 32.1353C6.89544 32.7047 5.84096 31.9386 6.14031 31.0173L9.45502 20.8157C9.58889 20.4036 9.44223 19.9523 9.09175 19.6976L0.413726 13.3927C-0.369988 12.8233 0.032788 11.5837 1.00151 11.5837H11.7281C12.1614 11.5837 12.5453 11.3047 12.6792 10.8927L15.9939 0.691051Z" fill="#111111"/>
</svg>
