<svg width="14" height="12" viewBox="0 0 14 12" fill="none" xmlns="http://www.w3.org/2000/svg">
<path d="M5.45 1.5C5.25 0.65 4.45 0 3.5 0C2.55 0 1.8 0.65 1.55 1.5H0V2.5H1.55C1.75 3.35 2.55 4 3.5 4C4.45 4 5.2 3.35 5.45 2.5H14V1.5H5.45ZM3.5 3C2.95 3 2.5 2.55 2.5 2C2.5 1.45 2.95 1 3.5 1C4.05 1 4.5 1.45 4.5 2C4.5 2.55 4.05 3 3.5 3ZM10.5 4C9.55 4 8.8 4.65 8.55 5.5H0V6.5H8.55C8.75 7.35 9.55 8 10.5 8C11.45 8 12.2 7.35 12.45 6.5H14V5.5H12.45C12.25 4.65 11.45 4 10.5 4ZM10.5 7C9.95 7 9.5 6.55 9.5 6C9.5 5.45 9.95 5 10.5 5C11.05 5 11.5 5.45 11.5 6C11.5 6.55 11.05 7 10.5 7ZM6 8C5.05 8 4.3 8.65 4.05 9.5H0V10.5H4.05C4.25 11.35 5.05 12 6 12C6.95 12 7.7 11.35 7.95 10.5H14V9.5H7.95C7.75 8.65 6.95 8 6 8ZM6 11C5.45 11 5 10.55 5 10C5 9.45 5.45 9 6 9C6.55 9 7 9.45 7 10C7 10.55 6.55 11 6 11Z" fill="#111111"/>
</svg>
