<svg width="110" height="110" viewBox="0 0 110 110" fill="none" xmlns="http://www.w3.org/2000/svg">
<path d="M76.9863 53.5586C89.144 53.5586 99 63.5071 99 75.7793C98.9999 88.0514 89.1439 98 76.9863 98C64.8288 97.9999 54.9737 88.0514 54.9736 75.7793C54.9736 63.5072 64.8288 53.5587 76.9863 53.5586ZM76.9863 56.5215C66.4498 56.5216 57.9082 65.1435 57.9082 75.7793C57.9083 86.4151 66.4499 95.037 76.9863 95.0371C87.5229 95.0371 96.0644 86.4151 96.0645 75.7793C96.0645 65.1434 87.523 56.5215 76.9863 56.5215ZM84.0869 70.2109C84.7077 69.6739 85.6464 69.7417 86.1836 70.3623C86.7206 70.9831 86.6528 71.9218 86.0322 72.459L75.7588 81.3477C75.4463 81.618 75.0348 81.7461 74.624 81.7012C74.2133 81.656 73.8393 81.442 73.5928 81.1104L69.1895 75.1846C68.7001 74.5257 68.8374 73.5941 69.4961 73.1045C70.155 72.6149 71.0865 72.7524 71.5762 73.4111L75.0234 78.0518L84.0869 70.2109ZM77.7207 18C78.5416 18 79.2079 18.6654 79.208 19.4863V53.5586H76.2344V20.9727H59.3955V34.2998C59.3955 34.8331 59.1095 35.3261 58.6465 35.5908C58.1835 35.8554 57.6138 35.8516 57.1543 35.5811L49.0732 30.8223L40.2744 35.6064C39.8138 35.8568 39.2553 35.846 38.8047 35.5781C38.3541 35.3102 38.0781 34.824 38.0781 34.2998V20.9727H21.9727V74.293H54.9736V77.2656H20.4863C19.6655 77.2655 19.0001 76.6001 19 75.7793V19.4863C19.0001 18.6655 19.6655 18.0001 20.4863 18H77.7207ZM41.0322 60.96C41.853 60.96 42.5183 61.6255 42.5186 62.4463C42.5186 63.2672 41.8532 63.9326 41.0322 63.9326H29.291C28.4702 63.9324 27.8047 63.2671 27.8047 62.4463C27.8049 61.6256 28.4703 60.9602 29.291 60.96H41.0322ZM45.4355 49.1094C46.2563 49.1096 46.9219 49.7749 46.9219 50.5957C46.9218 51.4165 46.2563 52.0818 45.4355 52.082H29.291C28.4703 52.0818 27.8047 51.4165 27.8047 50.5957C27.8047 49.7749 28.4702 49.1096 29.291 49.1094H45.4355ZM41.0508 31.7998L48.3936 27.8096L48.5703 27.7275C48.9897 27.5663 49.4642 27.6027 49.8574 27.834L56.4229 31.7002V20.9727H41.0508V31.7998Z" fill="#C5358C"/>
</svg>
