<svg width="30" height="30" viewBox="0 0 30 30" fill="none" xmlns="http://www.w3.org/2000/svg">
<path d="M7.60482 24.8092C8.04747 25.1455 8.61001 25.0262 9.27997 24.5382L14.9966 20.3318L20.7243 24.5382C21.3943 25.0262 21.9453 25.1455 22.3995 24.8092C22.8421 24.473 22.9399 23.9202 22.6697 23.1288L20.4108 16.3857L26.1818 12.2228C26.8518 11.7459 27.122 11.2468 26.9491 10.7052C26.7762 10.1848 26.268 9.9244 25.4362 9.9355L18.3575 9.97851L16.207 3.20309C15.9478 2.40103 15.5591 2 14.9966 2C14.4456 2 14.0564 2.40103 13.7968 3.20309L11.6463 9.97851L4.56806 9.9355C3.73579 9.9244 3.22813 10.1848 3.05522 10.7052C2.87124 11.2473 3.15204 11.7459 3.82247 12.2228L9.59306 16.3857L7.33462 23.1288C7.06442 23.9202 7.16171 24.473 7.60482 24.8092Z" fill="#111111"/>
</svg>
