<svg width="110" height="110" viewBox="0 0 110 110" fill="none" xmlns="http://www.w3.org/2000/svg">
<path fill-rule="evenodd" clip-rule="evenodd" d="M67.416 30C68.237 30 68.9033 30.6654 68.9033 31.4863V38.84H81.4412L81.5604 38.8449C82.1503 38.8922 82.6615 39.2871 82.8514 39.8556L87.6785 54.3097H92.5125C93.3334 54.3097 93.9986 54.9753 93.9989 55.7961V75.6867C93.9988 76.5076 93.3335 77.173 92.5125 77.173H90.1924C89.4705 82.1647 85.1664 86.0001 79.9651 86.0003L79.4329 85.9866C74.2225 85.723 70.0306 81.6077 69.6583 76.4367H67.4168L67.394 76.4365H45.9843C45.5995 81.7824 41.1318 86.0001 35.6774 86.0003L35.1452 85.9866C29.9348 85.723 25.7428 81.6076 25.3706 76.4365H16.4863C15.6654 76.4365 15.0001 75.7711 15 74.9502V31.4863C15 30.6654 15.6654 30 16.4863 30H32.7246H51.916H67.416ZM69.872 73.4631C70.8909 68.836 75.023 65.3733 79.9651 65.3733L80.4964 65.387C85.457 65.6379 89.4945 69.3799 90.1916 74.2004H91.0262V57.2834H68.9033V73.4631H69.872ZM65.9297 73.4639H45.7698C44.7881 69.0034 40.9136 65.625 36.2087 65.387L35.6774 65.3733C30.735 65.3733 26.6027 68.8364 25.5841 73.4639H17.9727V32.9727H31.2382V46.2197C31.2382 46.7427 31.513 47.2277 31.9619 47.4961C32.4107 47.7643 32.9681 47.7768 33.4287 47.5293L42.3193 42.75L51.2119 47.5293C51.6725 47.7769 52.2298 47.7645 52.6787 47.4961C53.1275 47.2277 53.4023 46.7427 53.4023 46.2197V32.9727H65.9297V73.4639ZM68.9033 54.3097H84.5438L80.37 41.8127H68.9033V54.3097ZM34.2109 32.9727H50.4296V43.7334L43.0234 39.7539C42.639 39.5474 42.1865 39.5209 41.7851 39.6758L41.6162 39.7539L34.2109 43.7324V32.9727ZM57.8215 55.0468C58.6423 55.0469 59.3079 55.7122 59.3079 56.5331C59.3079 57.3539 58.6423 58.0192 57.8215 58.0194H47.4875C46.6666 58.0194 46.0012 57.354 46.0012 56.5331C46.0012 55.7121 46.6666 55.0468 47.4875 55.0468H57.8215ZM59.3072 65.3733C59.3072 64.5525 58.6416 63.8872 57.8209 63.887H50.44C49.619 63.887 48.9537 64.5524 48.9537 65.3733C48.9537 66.1943 49.619 66.8597 50.44 66.8597H57.8209C58.6416 66.8594 59.3072 66.1942 59.3072 65.3733ZM43.0378 75.6868C43.0378 71.6384 39.748 68.3462 35.6774 68.346C31.6067 68.346 28.3161 71.6383 28.3161 75.6868C28.3161 79.7353 31.6067 83.0276 35.6774 83.0276C39.7479 83.0275 43.0377 79.7352 43.0378 75.6868ZM79.9651 68.346C84.0357 68.3462 87.3255 71.6384 87.3255 75.6868C87.3255 79.7352 84.0357 83.0275 79.9651 83.0276C75.8945 83.0276 72.6038 79.7353 72.6038 75.6868C72.6038 71.6383 75.8945 68.346 79.9651 68.346Z" fill="#C5358C"/>
</svg>
