<svg width="110" height="110" viewBox="0 0 110 110" fill="none" xmlns="http://www.w3.org/2000/svg">
<path d="M26.1377 15.0059C26.7915 15.0638 27.3373 15.5476 27.4648 16.2021L30.5479 32.0361H87.5137C88.3346 32.0361 88.9999 32.7016 89 33.5225V65.3721C89 66.193 88.3346 66.8584 87.5137 66.8584H27.4922V79.4404H87.5137C88.3346 79.4404 88.9999 80.1059 89 80.9268C89 81.7477 88.3346 82.4131 87.5137 82.4131H77.3682C78.6609 83.7489 79.459 85.5768 79.459 87.5938L79.4502 87.9746C79.2539 91.888 76.0543 95 72.1367 95C68.2193 94.9999 65.0205 91.888 64.8242 87.9746L64.8145 87.5938C64.8145 85.5769 65.6126 83.7489 66.9053 82.4131H48.0781C49.3708 83.7489 50.1689 85.5769 50.1689 87.5938L50.1602 87.9746C49.9639 91.888 46.7642 94.9999 42.8467 95C38.9292 94.9999 35.7305 91.888 35.5342 87.9746L35.5244 87.5938C35.5244 85.5768 36.3225 83.7489 37.6152 82.4131H26.0059C25.185 82.413 24.5186 81.7477 24.5186 80.9268V65.3721C24.5187 64.5513 25.185 63.8858 26.0059 63.8857H33.7207L32.0459 55.2861L30.0273 44.917L27.8633 33.8066L24.7812 17.9727H16.4863C15.6654 17.9726 15 17.3072 15 16.4863C15.0001 15.6655 15.6655 15.0001 16.4863 15H26.0059L26.1377 15.0059ZM72.1367 83.1592C69.7667 83.1593 67.7871 85.1127 67.7871 87.5938C67.7875 90.0744 69.767 92.0272 72.1367 92.0273C74.5066 92.0273 76.4859 90.0745 76.4863 87.5938C76.4863 85.1127 74.5068 83.1592 72.1367 83.1592ZM42.8467 83.1592C40.4767 83.1593 38.4971 85.1127 38.4971 87.5938C38.4974 90.0744 40.4769 92.0273 42.8467 92.0273C45.2164 92.0272 47.1959 90.0744 47.1963 87.5938C47.1963 85.1127 45.2167 83.1593 42.8467 83.1592ZM36.749 63.8857H86.0273V56.4893H35.3096L36.749 63.8857ZM34.7305 53.5156H86.0273V46.1191H33.29L34.7305 53.5156ZM32.7109 43.1465H86.0273V35.0088H31.127L32.7109 43.1465Z" fill="#C5358C"/>
</svg>
