<svg width="26" height="26" viewBox="0 0 26 26" fill="none" xmlns="http://www.w3.org/2000/svg">
<path fill-rule="evenodd" clip-rule="evenodd" d="M25.1276 2.35867C25.6673 1.81904 25.6673 0.94412 25.1276 0.404487C24.588 -0.135147 23.7131 -0.135147 23.1734 0.404486L12.7666 10.8113L2.35976 0.404486C1.82012 -0.135148 0.945205 -0.135147 0.405572 0.404487C-0.134061 0.94412 -0.134062 1.81904 0.405572 2.35867L10.8124 12.7655L0.404567 23.1734C-0.135066 23.713 -0.135065 24.5879 0.404569 25.1275C0.944202 25.6672 1.81912 25.6672 2.35875 25.1276L12.7666 14.7197L23.1745 25.1275C23.7141 25.6672 24.589 25.6672 25.1286 25.1275C25.6683 24.5879 25.6683 23.713 25.1286 23.1734L14.7208 12.7655L25.1276 2.35867Z" fill="#ABABAB"/>
</svg>
